# xmcd CD database file
#
# Track frame offsets:
#	150
#	15442
#	28657
#	41727
#	56400
#	68605
#	87032
#	97932
#	111922
#	125405
#	138930
#	153715
#
# Disc length: 2239 seconds
#
# Revision: 0
# Processed by: cddbd v1.5.2PL0 Copyright (c) Steve Scherf et al.
# Submitted via: CDex 1.70beta3
#
DISCID=9208bd0c
DTITLE=Bud Powell - The Amazing Bud Powell Vol.2
DYEAR=1953
DGENRE=Jazz
TTITLE0=Reets And I
TTITLE1=Autumn In New York
TTITLE2=I Want To Be Happy
TTITLE3=It Could Happen To You
TTITLE4=Sure Thing
TTITLE5=Polka Dots And Moonbeams
TTITLE6=Glass Enclosure
TTITLE7=Collard Greens And Black-Eye Peas
TTITLE8=Over The Rainbow
TTITLE9=Audrey
TTITLE10=You Go To My Head
TTITLE11=Ornithology (Alternate Master)
EXTD=YEAR: 1953
EXTT0=
EXTT1=
EXTT2=
EXTT3=
EXTT4=
EXTT5=
EXTT6=
EXTT7=
EXTT8=
EXTT9=
EXTT10=
EXTT11=
PLAYORDER=
